<?xml version="1.0" encoding="utf-8"?>
<!-- Generator: Adobe Illustrator 25.0.0, SVG Export Plug-In . SVG Version: 6.00 Build 0)  -->
<svg version="1.1" id="Layer_1" xmlns="http://www.w3.org/2000/svg" xmlns:xlink="http://www.w3.org/1999/xlink" x="0px" y="0px"
	 viewBox="0 0 92 96" style="enable-background:new 0 0 92 96;" xml:space="preserve">
<style type="text/css">
	.st0{fill:#C8B274;}
</style>
<g>
	<g>
		<g>
			<path class="st0" d="M18.1,67.87c0-1.83-1.49-3.32-3.32-3.32H9.85v9.86h2.17v-3.09l3.09,3.09H18l-3.21-3.22
				C16.62,71.19,18.1,69.7,18.1,67.87 M14.52,66.49c0.79,0,1.43,0.64,1.43,1.43c0,0.79-0.64,1.43-1.43,1.43h-2.5v-2.86H14.52z"/>
			<path class="st0" d="M54.73,67.87c0-1.83-1.48-3.32-3.32-3.32h-4.93v9.86h2.17v-3.09l3.09,3.09h2.89l-3.21-3.22
				C53.25,71.19,54.73,69.7,54.73,67.87 M51.15,66.49c0.79,0,1.43,0.64,1.43,1.43c0,0.79-0.64,1.43-1.43,1.43h-2.5v-2.86H51.15z"/>
			<polygon class="st0" points="26.5,66.44 26.5,64.55 19.06,64.55 19.06,74.41 26.5,74.41 26.5,72.51 21.21,72.51 21.21,70.38 
				25.89,70.38 25.89,68.49 21.21,68.49 21.21,66.44 			"/>
			<path class="st0" d="M40.72,64.3c-2.88,0-5.22,2.33-5.22,5.2c0,2.87,2.34,5.2,5.22,5.2c2.88,0,5.22-2.33,5.22-5.2
				C45.93,66.63,43.6,64.3,40.72,64.3 M40.72,72.63c-1.67,0-3.02-1.4-3.02-3.13c0-1.73,1.35-3.13,3.02-3.13
				c1.67,0,3.02,1.4,3.02,3.13C43.74,71.22,42.39,72.63,40.72,72.63"/>
			<path class="st0" d="M34.4,71.42c-0.57,0.73-1.45,1.21-2.44,1.21c-1.71,0-3.1-1.4-3.1-3.13c0-1.73,1.39-3.13,3.1-3.13
				c0.96,0,1.82,0.44,2.39,1.14l1.33-1.58c-0.95-1-2.3-1.63-3.79-1.63c-2.88,0-5.22,2.33-5.22,5.2c0,2.87,2.33,5.2,5.22,5.2
				c1.59,0,3.01-0.71,3.97-1.82L34.4,71.42z"/>
			<path class="st0" d="M59.76,64.55h-4.12v9.86h4.12c2.72,0,4.93-2.21,4.93-4.93C64.69,66.76,62.48,64.55,59.76,64.55 M59.54,72.49
				h-1.76v-5.97h1.76c1.65,0,2.99,1.34,2.99,2.99C62.53,71.15,61.19,72.49,59.54,72.49"/>
			<path class="st0" d="M71.73,64.59h-6.98c-0.27,0-0.5,0.19-0.5,0.43c0,0.24,0.22,0.43,0.5,0.43h2.99v8.44
				c0,0.3,0.23,0.55,0.5,0.55c0.27,0,0.5-0.25,0.5-0.55v-8.44h2.99c0.27,0,0.5-0.19,0.5-0.43C72.23,64.78,72.01,64.59,71.73,64.59"
				/>
			<path class="st0" d="M77.36,74.35c-0.19,0-0.37-0.11-0.44-0.29l-4.01-9.06c-0.11-0.25,0-0.53,0.25-0.64
				c0.25-0.11,0.53,0,0.64,0.25l3.57,8.06l3.65-8.06c0.11-0.25,0.4-0.35,0.65-0.24c0.24,0.11,0.35,0.4,0.24,0.65l-4.11,9.06
				C77.73,74.24,77.55,74.35,77.36,74.35L77.36,74.35z"/>
			<path class="st0" d="M26.77,10.11c0,0,6.4-7.32,18.82-7.38c11.28-0.06,21.16,6.68,25.88,16.76c0,0,1.11,2.85-0.85,5.51
				c-1.96,2.66-4.21,2.19-7.07-1.08c-2.85-3.26-6.66-7.88-14.13-11.82C41.91,8.15,31.55,6.5,26.77,10.11"/>
			<path class="st0" d="M24.01,13.82c0,0,1.33-1.52,5.07-1.43c3.74,0.09,3.42,3.71,2.53,6.4c-0.44,1.34-3.17,9.37-3.17,15.81
				c0,8.27,2.63,19.64,10.2,23.63c0,0-20.05-4.37-20.81-26.64C17.83,31.59,17.45,21.83,24.01,13.82"/>
			<path class="st0" d="M26.13,12.52c0,0,1.3-3.33,8.84-3.2c7.54,0.13,13.94,3.55,18.31,6.49c4.37,2.95,8.49,7.98,8.49,7.98
				s2.94,4.12,6.02,3.71c3.07-0.41,3.9-3.77,4.09-5.2c0,0,0.57,1.3,0.44,2.76c-0.13,1.46-0.54,3.9-2.95,7.73
				c-2.41,3.83-11.92,14.22-25.48,16.28c0,0-4.33,0.38-5.91,1.58c-1.03,0.78-2.69,2.09-0.1,5.86c0,0-8.24-5.58-8.36-21.73
				c0,0-0.07-6.49,2.63-13.81c2.98-8.08-1.43-8.68-1.43-8.68S28.92,11.72,26.13,12.52"/>
			<path class="st0" d="M73.27,23.99c0.37,2.97-0.41,10.39-14.2,20.38c0,0-6.89,5.21-16.33,5.91c-7.1,0.53-6.08,4.12-4.75,5.96
				c1.66,2.3,7.95,3.86,15.76,1.58c7.93-2.32,13.4-6.95,16.71-12.89C75.34,36.14,74.05,27.34,73.27,23.99"/>
		</g>
		<g>
			<rect x="17.17" y="79.87" class="st0" width="57.47" height="0.2"/>
		</g>
	</g>
	<g>
		<path class="st0" d="M16.72,93.22l3.48-7.61c0.12-0.27,0.31-0.43,0.61-0.43h0.05c0.29,0,0.49,0.16,0.6,0.43l3.48,7.6
			c0.04,0.09,0.06,0.17,0.06,0.25c0,0.26-0.21,0.47-0.47,0.47c-0.23,0-0.39-0.16-0.48-0.36l-0.89-1.97h-4.71l-0.89,2
			c-0.09,0.21-0.25,0.33-0.47,0.33c-0.25,0-0.44-0.2-0.44-0.44C16.66,93.4,16.67,93.31,16.72,93.22z M22.79,90.7l-1.97-4.39
			l-1.97,4.39H22.79z"/>
		<path class="st0" d="M25.88,85.71c0-0.26,0.22-0.48,0.48-0.48h0.11c0.21,0,0.36,0.11,0.45,0.26l3.06,4.61l3.06-4.61
			c0.1-0.16,0.26-0.26,0.45-0.26h0.11c0.26,0,0.48,0.22,0.48,0.48v7.71c0,0.27-0.22,0.49-0.48,0.49c-0.27,0-0.49-0.23-0.49-0.49
			v-6.4l-2.75,4.03c-0.11,0.16-0.23,0.25-0.4,0.25c-0.17,0-0.31-0.09-0.42-0.25l-2.73-4.02v6.4c0,0.27-0.21,0.48-0.48,0.48
			c-0.26,0-0.47-0.21-0.47-0.48V85.71z"/>
		<path class="st0" d="M35.53,93.36v-7.6c0-0.27,0.22-0.49,0.48-0.49h5.33c0.25,0,0.44,0.2,0.44,0.44c0,0.25-0.2,0.44-0.44,0.44
			H36.5v2.93h4.29c0.25,0,0.44,0.21,0.44,0.44c0,0.25-0.2,0.44-0.44,0.44H36.5v3h4.9c0.25,0,0.44,0.2,0.44,0.44s-0.2,0.44-0.44,0.44
			h-5.39C35.75,93.85,35.53,93.63,35.53,93.36z"/>
		<path class="st0" d="M42.76,85.76c0-0.27,0.22-0.49,0.48-0.49h3.21c1.05,0,1.9,0.32,2.44,0.86c0.42,0.42,0.66,1.02,0.66,1.69v0.02
			c0,1.41-0.96,2.23-2.29,2.49l2.13,2.75c0.1,0.11,0.16,0.22,0.16,0.36c0,0.26-0.25,0.48-0.49,0.48c-0.2,0-0.34-0.11-0.45-0.26
			l-2.41-3.14h-2.46v2.9c0,0.27-0.22,0.49-0.49,0.49c-0.26,0-0.48-0.22-0.48-0.49V85.76z M46.37,89.65c1.29,0,2.21-0.66,2.21-1.76
			v-0.02c0-1.05-0.81-1.69-2.19-1.69h-2.65v3.48H46.37z"/>
		<path class="st0" d="M50.73,85.7c0-0.27,0.22-0.49,0.48-0.49c0.27,0,0.49,0.22,0.49,0.49v7.72c0,0.27-0.22,0.49-0.49,0.49
			c-0.26,0-0.48-0.22-0.48-0.49V85.7z"/>
		<path class="st0" d="M52.85,89.59v-0.02c0-2.43,1.81-4.44,4.34-4.44c1.38,0,2.27,0.45,3.06,1.12c0.1,0.09,0.2,0.22,0.2,0.39
			c0,0.26-0.23,0.48-0.49,0.48c-0.13,0-0.25-0.06-0.32-0.11c-0.66-0.59-1.41-0.98-2.46-0.98c-1.9,0-3.32,1.54-3.32,3.52v0.02
			c0,1.99,1.43,3.54,3.32,3.54c1.07,0,1.81-0.37,2.55-1.04c0.07-0.07,0.18-0.13,0.31-0.13c0.25,0,0.47,0.22,0.47,0.47
			c0,0.15-0.07,0.27-0.16,0.34C59.49,93.51,58.56,94,57.15,94C54.68,94,52.85,92.05,52.85,89.59z"/>
		<path class="st0" d="M60.77,93.22l3.48-7.61c0.12-0.27,0.31-0.43,0.61-0.43h0.05c0.29,0,0.49,0.16,0.6,0.43l3.48,7.6
			c0.04,0.09,0.06,0.17,0.06,0.25c0,0.26-0.21,0.47-0.47,0.47c-0.23,0-0.39-0.16-0.48-0.36l-0.89-1.97h-4.71l-0.89,2
			c-0.09,0.21-0.25,0.33-0.47,0.33c-0.25,0-0.44-0.2-0.44-0.44C60.71,93.4,60.72,93.31,60.77,93.22z M66.83,90.7l-1.97-4.39
			l-1.97,4.39H66.83z"/>
		<path class="st0" d="M69.47,92.82c-0.11-0.07-0.18-0.21-0.18-0.37c0-0.27,0.21-0.48,0.47-0.48c0.12,0,0.23,0.05,0.29,0.11
			c0.81,0.69,1.62,1.02,2.71,1.02c1.15,0,1.91-0.61,1.91-1.46v-0.02c0-0.8-0.43-1.25-2.23-1.63c-1.97-0.43-2.88-1.07-2.88-2.48
			v-0.02c0-1.35,1.19-2.34,2.82-2.34c1.13,0,1.95,0.28,2.73,0.85c0.1,0.07,0.21,0.21,0.21,0.39c0,0.26-0.21,0.47-0.47,0.47
			c-0.11,0-0.2-0.02-0.28-0.09c-0.72-0.53-1.42-0.75-2.22-0.75c-1.12,0-1.83,0.61-1.83,1.38v0.02c0,0.81,0.44,1.26,2.33,1.67
			c1.91,0.42,2.79,1.12,2.79,2.43v0.02c0,1.47-1.23,2.43-2.93,2.43C71.47,93.98,70.43,93.58,69.47,92.82z"/>
	</g>
</g>
</svg>
